<svg xmlns="http://www.w3.org/2000/svg" width="1024" height="1024" fill="none"><rect width="1024" height="1024" rx="160" style="fill:#1d233d"/><path stroke="#252409" d="M135.469 57.578h750.508c27.365 5.449 48.111 17.524 62.227 36.224l14.863 26.007 5.575 22.292v746.766c-4.456 27.123-15.29 47.872-32.513 62.231l-31.579 18.583-29.724 5.57H507l-2.511.747-36.5-4.457-31.58-9.298c-17.944-7.429-33.121-17.647-45.493-30.651-12.395-13.002-21.682-29.108-27.868-48.297l-5.573-27.864v-42.726l5.573-31.578 11.145-35.295c11.146-28.483 24.767-54.49 40.873-78.021l46.422-59.444 106.813-106.814L696.478 800.63l25.932-44.103-77.017-330.209 113.316-111.457c14.749-19.195 24.034-43.036 27.865-71.519-37.637 5.448-66.746 20.001-87.311 43.655l-93.809 97.525-336.236-74.306-39.938 23.221 299.082 128.177-116.083 116.102c-24.15 21.673-50.161 41.486-78.025 59.443l-52.033 27.865-35.294 13.003-35.296 7.432h-44.582c-34.905-5.945-61.228-20.496-78.95-43.655-12.242-14.985-21.529-32.941-27.864-53.871l-5.573-24.15-3.715-37.152V147.675l3.715-20.435 7.43-18.576L85.313 79.87l27.864-16.718 22.292-5.574Z" style="stroke-width:1;fill:#fff"/></svg>
